<svg height="511pt" viewBox="-32 1 511 511.999" width="511pt" xmlns="http://www.w3.org/2000/svg"><path d="m301.773438 60c0 33-27 60-60 60-32.996094 0-60-27-60-60s27.003906-60 60-60c33 0 60 27 60 60zm0 0" fill="#73bcff"/><path d="m331.773438 210v15c0 8.398438-6.597657 15-15 15h-150c-8.398438 0-15-6.601562-15-15v-15c0-49.5 40.5-90 90-90 49.503906 0 90 40.5 90 90zm0 0" fill="#73bcff"/><path d="m445.773438 261.898438-69 131.699218c-18.300782 34.800782-54 56.402344-92.996094 56.402344h-125.703125l-57 57.800781c-3 2.699219-6.898438 4.199219-10.5 4.199219-3.898438 0-7.796875-1.5-10.800781-4.199219l-75-75.804687c-5.699219-5.996094-5.699219-15.597656 0-21.296875l88.800781-88.800781c14.101562-14.097657 33-21.898438 53.101562-21.898438h177.597657l-27.296876 51.898438c-2.703124 5.097656-7.800781 8.101562-13.199218 8.101562h-102.003906c-8.398438 0-15 6.597656-15 15 0 8.398438 6.601562 15 15 15h102.003906c16.796875 0 31.796875-9.300781 39.597656-24l46.199219-87.902344c12.300781-23.398437 36.601562-38.097656 63-38.097656 5.101562 0 9.902343 2.699219 12.601562 7.199219 3 4.5 3 10.199219.597657 14.699219zm0 0" fill="#ffbfab"/><path d="m241.773438 120v-120c33 0 60 27 60 60s-27 60-60 60zm0 0" fill="#0095ff"/><path d="m283.777344 360h-42.003906v-60h82.5l-27.296876 51.898438c-2.703124 5.101562-7.800781 8.101562-13.199218 8.101562zm0 0" fill="#f89580"/><path d="m316.773438 240h-75v-120c49.503906 0 90 40.5 90 90v15c0 8.398438-6.597657 15-15 15zm0 0" fill="#0095ff"/><path d="m445.773438 261.898438-69 131.699218c-18.300782 34.800782-54 56.402344-92.996094 56.402344h-42.003906v-60h42.003906c16.796875 0 31.796875-9.300781 39.597656-24l46.199219-87.902344c12.300781-23.398437 36.601562-38.097656 63-38.097656 5.101562 0 9.902343 2.699219 12.601562 7.199219 3 4.5 3 10.199219.597657 14.699219zm0 0" fill="#f89580"/></svg>